<?xml version="1.0" encoding="UTF-8" standalone="no"?>
<svg
   xmlns:dc="http://purl.org/dc/elements/1.1/"
   xmlns:cc="http://creativecommons.org/ns#"
   xmlns:rdf="http://www.w3.org/1999/02/22-rdf-syntax-ns#"
   xmlns:svg="http://www.w3.org/2000/svg"
   xmlns="http://www.w3.org/2000/svg"
   xmlns:sodipodi="http://sodipodi.sourceforge.net/DTD/sodipodi-0.dtd"
   xmlns:inkscape="http://www.inkscape.org/namespaces/inkscape"
   width="307"
   height="48"
   viewBox="0 0 307 48"
   version="1.1"
   id="svg14"
   sodipodi:docname="ebay.svg"
   inkscape:version="0.92.3 (2405546, 2018-03-11)"
   inkscape:export-filename="D:\Categories\freelance\jamesquake\Ebay_work\Ebay\ebay\assets\ebay.png"
   inkscape:export-xdpi="933.60004"
   inkscape:export-ydpi="933.60004">
  <metadata
     id="metadata20">
    <rdf:RDF>
      <cc:Work
         rdf:about="">
        <dc:format>image/svg+xml</dc:format>
        <dc:type
           rdf:resource="http://purl.org/dc/dcmitype/StillImage" />
      </cc:Work>
    </rdf:RDF>
  </metadata>
  <defs
     id="defs18" />
  <sodipodi:namedview
     pagecolor="#ffffff"
     bordercolor="#666666"
     borderopacity="1"
     objecttolerance="10"
     gridtolerance="10"
     guidetolerance="10"
     inkscape:pageopacity="0"
     inkscape:pageshadow="2"
     inkscape:window-width="1858"
     inkscape:window-height="1057"
     id="namedview16"
     showgrid="false"
     inkscape:zoom="3.7003257"
     inkscape:cx="60.894546"
     inkscape:cy="88.399946"
     inkscape:window-x="-8"
     inkscape:window-y="-8"
     inkscape:window-maximized="1"
     inkscape:current-layer="g12" />
  <g
     fill="none"
     fill-rule="evenodd"
     id="g12">
    <path
       d="m 103.48661,-21.977085 c 0,1.786 0.051,3.55 0.205,5.137 h -5.638 a 33.889,33.889 0 0 1 -0.205,-3.866 c -3.048,3.794 -6.674,4.885 -11.703,4.885 -7.46,0 -11.454,-3.993 -11.454,-8.611 0,-6.689 5.432,-9.047 14.863,-9.266 2.58,-0.06 5.476,-0.069 7.87,-0.069 v -0.653 c 0,-4.478 -2.835,-6.32 -7.748,-6.32 -3.648,0 -6.336,1.53 -6.613,4.17 h -6.368 c 0.674,-6.584 7.506,-8.251 13.514,-8.251 7.198,0 13.277,2.593 13.277,10.302 z m -13.516,-7.606 c -5.496,0.182 -8.91,1.187 -8.91,4.852 0,2.374 1.868,4.946 6.611,4.946 6.359,0 9.753,-3.51 9.753,-9.267 v -0.633 c -2.229,0 -4.978,0.02 -7.454,0.102 z"
       id="path2"
       inkscape:connector-curvature="0"
       style="fill:#f6af02"
       inkscape:export-xdpi="905.79163"
       inkscape:export-ydpi="905.79163" />
    <path
       d="m 20.76061,-28.768085 c 0.321,5.571 4.05,8.866 9.18,8.866 3.552,0 6.713,-1.491 7.771,-4.735 h 6.146 c -1.195,6.582 -7.985,8.816 -13.83,8.816 -10.626,0 -15.336,-6.028 -15.336,-14.157 0,-8.95 4.871,-14.843 15.433,-14.843 8.407,0 14.567,4.532 14.567,14.423 v 1.63 h -23.931 z m 17.67,-4.081 c -0.231,-5.742 -4.255,-7.89 -8.555,-7.89 -4.636,0 -8.339,2.416 -8.987,7.89 h 17.543 z"
       id="path4"
       inkscape:connector-curvature="0"
       style="fill:#e53238"
       inkscape:export-xdpi="716.00006"
       inkscape:export-ydpi="716.00006" />
    <path
       d="m 44.90061,-54.821085 h 6.135 l -10e-4,15.11 c 3.007,-3.512 7.15,-4.532 11.227,-4.532 6.837,0 14.43,4.523 14.43,14.288 0,8.178 -6.039,14.134 -14.544,14.134 -4.452,0 -8.642,-1.566 -11.227,-4.667 0,1.239 -0.07,2.487 -0.208,3.669 h -6.021 c 0.105,-1.91 0.209,-4.288 0.209,-6.212 z m 15.74,34.886 c 5.702,0 9.604,-4.024 9.604,-10.096 0,-6.072 -3.902,-10.096 -9.604,-10.096 -5.671,0 -9.605,4.024 -9.605,10.096 0,6.072 3.934,10.096 9.605,10.096 z"
       id="path6"
       inkscape:connector-curvature="0"
       style="fill:#0064d2"
       inkscape:export-xdpi="905.79163"
       inkscape:export-ydpi="905.79163" />
    <path
       d="m 134.69161,-43.821085 -18.608,37 h -6.738 l 5.35,-10.274 -14.004,-26.726 h 7.04 l 10.305,20.881 10.276,-20.881 z"
       id="path8"
       inkscape:connector-curvature="0"
       style="fill:#86b817"
       inkscape:export-xdpi="905.79163"
       inkscape:export-ydpi="905.79163" />
    <path
       d="m 108.7956,-121.70349 c -1.16,0 -1.366,-1.207 -1.366,-4.1 0,-2.299 -0.023,-3.893 1.366,-3.893 1.321,0 1.298,1.594 1.298,3.894 0,2.892 -0.205,4.099 -1.298,4.099 z m 4.51,1.753 v -16.441 h -3.212 v 6.034 h -0.045 c -0.66,-0.98 -1.457,-1.321 -2.619,-1.321 -3.233,0 -3.142,3.575 -3.142,5.898 0,2.368 -0.114,6.057 3.21,6.057 1.23,0 2.118,-0.387 2.71,-1.503 h 0.046 v 1.275 h 3.051 z m 5.17,-7.036 c 0,-0.98 -0.023,-2.71 1.457,-2.71 1.526,0 1.48,1.594 1.48,2.71 z m 6.148,1.799 c 0.114,-3.69 -0.365,-6.49 -4.69,-6.49 -4.236,0 -4.692,2.687 -4.692,5.83 0,3.597 0.547,6.125 4.691,6.125 1.503,0 2.641,-0.41 3.393,-1.116 0.774,-0.706 1.184,-1.73 1.23,-2.983 h -3.257 c 0,0.956 -0.227,2.05 -1.366,2.05 -1.412,0 -1.457,-2.05 -1.457,-3.416 z m 3.85,5.237 h 3.53 l 3.164,-11.5 h -3.142 l -1.685,8.63 h -0.046 l -1.616,-8.63 h -3.256 l 3.05,11.5 z m 10.727,-7.036 c 0,-0.98 -0.023,-2.71 1.457,-2.71 1.525,0 1.48,1.594 1.48,2.71 z m 6.148,1.799 c 0.113,-3.69 -0.365,-6.49 -4.691,-6.49 -4.235,0 -4.69,2.687 -4.69,5.83 0,3.597 0.546,6.125 4.69,6.125 1.503,0 2.641,-0.41 3.393,-1.116 0.774,-0.706 1.184,-1.73 1.23,-2.983 h -3.257 c 0,0.956 -0.228,2.05 -1.366,2.05 -1.412,0 -1.457,-2.05 -1.457,-3.416 z m 2.165,-11.203 v 16.44 h 3.21 v -16.441 h -3.21 z m 10.089,14.618 c -1.184,0 -1.48,-0.751 -1.48,-4.258 0,-2.39 0.113,-3.598 1.48,-3.598 1.366,0 1.48,1.207 1.48,3.598 0,3.507 -0.296,4.258 -1.48,4.258 z m 0,2.05 c 4.144,0 4.69,-2.528 4.69,-6.126 0,-3.142 -0.455,-5.829 -4.69,-5.829 -4.236,0 -4.691,2.687 -4.691,5.83 0,3.597 0.546,6.125 4.69,6.125 z m 11.09,-1.981 c -1.092,0 -1.297,-1.207 -1.297,-4.1 0,-2.299 -0.023,-3.893 1.298,-3.893 1.389,0 1.366,1.594 1.366,3.894 0,2.892 -0.205,4.099 -1.366,4.099 z m -4.508,-9.746 v 16.44 h 3.21 v -6.034 h 0.046 c 0.66,0.98 1.458,1.32 2.619,1.32 3.233,0 3.142,-3.574 3.142,-5.897 0,-2.368 0.114,-6.057 -3.21,-6.057 -1.23,0 -2.118,0.387 -2.71,1.503 h -0.046 v -1.275 h -3.05 z m 13.96,4.463 c 0,-0.98 -0.022,-2.71 1.458,-2.71 1.525,0 1.48,1.594 1.48,2.71 z m 6.148,1.799 c 0.114,-3.69 -0.364,-6.49 -4.69,-6.49 -4.236,0 -4.691,2.687 -4.691,5.83 0,3.597 0.546,6.125 4.69,6.125 1.504,0 2.642,-0.41 3.393,-1.116 0.775,-0.706 1.185,-1.73 1.23,-2.983 h -3.256 c 0,0.956 -0.228,2.05 -1.366,2.05 -1.412,0 -1.458,-2.05 -1.458,-3.416 z m 1.892,-6.262 v 11.498 h 3.21 v -6.262 c 0,-1.139 0.046,-2.778 2.87,-2.596 v -2.869 c -1.298,0 -2.391,0.387 -2.983,1.708 h -0.046 v -1.48 h -3.05 z m 6.583,7.81 c -0.183,3.21 1.685,3.917 4.485,3.917 2.665,0 4.304,-1.503 4.304,-3.507 0,-3.689 -5.647,-3.598 -5.647,-5.42 0,-0.774 0.387,-1.23 1.093,-1.23 0.342,0 0.615,0.046 0.82,0.251 0.227,0.205 0.318,0.684 0.318,1.48 h 3.143 c 0.182,-2.482 -1.799,-3.529 -3.985,-3.529 -2.072,0 -4.531,0.751 -4.531,3.233 0,3.667 5.647,3.12 5.647,5.556 0,0.775 -0.547,1.185 -1.184,1.185 -0.638,0 -0.98,-0.183 -1.162,-0.547 -0.159,-0.364 -0.182,-0.865 -0.159,-1.389 z m 19.518,1.936 c -1.093,0 -1.298,-1.207 -1.298,-4.1 0,-2.299 -0.023,-3.893 1.298,-3.893 1.389,0 1.366,1.594 1.366,3.894 0,2.892 -0.205,4.099 -1.366,4.099 z m -4.509,-9.746 v 16.44 h 3.21 v -6.034 h 0.046 c 0.66,0.98 1.457,1.32 2.619,1.32 3.233,0 3.142,-3.574 3.142,-5.897 0,-2.368 0.114,-6.057 -3.21,-6.057 -1.23,0 -2.118,0.387 -2.71,1.503 h -0.046 v -1.275 z m 11,0 v 11.498 h 3.21 v -6.262 c 0,-1.139 0.046,-2.778 2.87,-2.596 v -2.869 c -1.298,0 -2.391,0.387 -2.983,1.708 h -0.046 v -1.48 h -3.051 z m 11.615,9.677 c -1.184,0 -1.48,-0.751 -1.48,-4.258 0,-2.39 0.113,-3.598 1.48,-3.598 1.366,0 1.48,1.207 1.48,3.598 0,3.507 -0.296,4.258 -1.48,4.258 z m 0,2.05 c 4.144,0 4.69,-2.528 4.69,-6.126 0,-3.142 -0.455,-5.829 -4.69,-5.829 -4.236,0 -4.691,2.687 -4.691,5.83 0,3.597 0.546,6.125 4.69,6.125 z m 9.451,-5.625 c 0,-3.506 0.205,-4.349 1.412,-4.349 1.184,0 1.298,1.435 1.298,3.962 0,2.437 -0.16,3.643 -1.32,3.643 -1.55,0 -1.39,-2.186 -1.39,-3.256 z m 2.87,-6.102 v 1.343 h -0.046 c -0.456,-1.07 -1.435,-1.571 -2.573,-1.571 -3.348,0 -3.393,3.21 -3.393,5.738 0,2.596 -0.16,5.83 3.37,5.83 1.047,0 1.958,-0.456 2.436,-1.344 h 0.046 v 2.209 c 0,1.161 -0.387,1.913 -1.184,1.913 -0.501,0 -0.865,-0.16 -1.07,-0.456 -0.205,-0.273 -0.274,-0.683 -0.274,-1.161 h -3.142 c 0.068,2.8 2.118,3.415 4.509,3.415 4.417,0 4.372,-3.142 4.372,-3.939 v -11.977 h -3.052 z m 5.261,0 v 11.498 h 3.21 v -6.262 c 0,-1.139 0.046,-2.778 2.87,-2.596 v -2.869 c -1.298,0 -2.391,0.387 -2.983,1.708 h -0.046 v -1.48 h -3.05 z m 12.776,5.943 c 0,1.252 0.296,3.803 -1.594,3.803 -1.047,0 -1.184,-1.002 -1.184,-1.822 0,-2.05 1.184,-1.913 2.778,-1.981 z m 3.143,-2.323 c 0,-2.095 -0.524,-3.848 -4.6,-3.848 -1.23,0 -2.277,0.205 -3.006,0.751 -0.751,0.524 -1.184,1.412 -1.184,2.801 h 3.142 c 0,-0.91 0.092,-1.753 1.207,-1.753 1.162,0 1.298,0.706 1.298,1.685 v 0.888 c -2.983,-0.046 -5.92,0.114 -5.92,3.917 0,2.003 0.82,3.666 3.051,3.666 1.39,0 2.323,-0.57 3.006,-1.754 h 0.045 l 0.137,1.526 h 2.983 c -0.068,-0.706 -0.16,-1.435 -0.16,-2.14 v -5.739 z m 5.239,-3.62 h -3.211 v 11.498 h 3.21 v -7.924 c 0,-1.025 0.183,-1.822 1.207,-1.822 1.025,0 1.207,0.797 1.207,1.822 v 7.924 h 3.143 v -7.924 c 0,-1.025 0.182,-1.822 1.206,-1.822 1.025,0 1.207,0.797 1.207,1.822 v 7.924 h 3.211 v -9.222 c 0,-1.594 -1.343,-2.505 -2.87,-2.505 -1.32,0 -2.23,0.455 -2.982,1.457 -0.524,-0.91 -1.435,-1.457 -2.573,-1.457 -1.207,0 -2.072,0.364 -2.71,1.389 h -0.045 v -1.161 z"
       id="path10"
       inkscape:connector-curvature="0"
       style="fill:#796e65" />
    <text
       xml:space="preserve"
       style="font-style:normal;font-variant:normal;font-weight:normal;font-stretch:normal;font-size:46.46701813px;line-height:1.25;font-family:'Arial Narrow';-inkscape-font-specification:'Arial Narrow';letter-spacing:0px;word-spacing:0px;fill:#796e65;fill-opacity:1;stroke:none;stroke-width:0.87125665"
       x="16.799507"
       y="-50.289001"
       id="text4532"
       transform="scale(0.87125667,1.1477674)"
       inkscape:export-xdpi="905.79163"
       inkscape:export-ydpi="905.79163"><tspan
         sodipodi:role="line"
         id="tspan4530"
         x="16.799507"
         y="-50.289001"
         style="font-style:normal;font-variant:normal;font-weight:bold;font-stretch:normal;font-size:12.83416939px;font-family:sans-serif;-inkscape-font-specification:'sans-serif Bold';fill:#796e65;fill-opacity:1;stroke-width:0.87125665">right now on</tspan></text>
  </g>
</svg>
