<svg xmlns="http://www.w3.org/2000/svg" viewBox="0 0 48 60" x="0px" y="0px"><title>Shop Bag vol.1</title><g data-name="Layer 25"><path d="M24,2.437a8.1292,8.1292,0,0,0-8.12012,8.12012v.437H6.9707a1.00025,1.00025,0,0,0-.99414.89063L2.40039,44.4541a1.00013,1.00013,0,0,0,.99414,1.10938H44.60547a1.00013,1.00013,0,0,0,.99414-1.10938L42.02344,11.88477a1.00025,1.00025,0,0,0-.99414-.89063H32.12012v-.437A8.1292,8.1292,0,0,0,24,2.437Zm-6.12012,8.12012a6.12012,6.12012,0,0,1,12.24024,0v.437H17.87988Zm22.25293,2.437,3.35645,30.56934H4.51074L7.86719,12.99414h8.01269v3.72559a1,1,0,0,0,2,0V12.99414H30.12012v3.72559a1,1,0,0,0,2,0V12.99414Z"/></g><text x="0" y="63" fill="#000000" font-size="5px" font-weight="bold" font-family="'Helvetica Neue', Helvetica, Arial-Unicode, Arial, Sans-serif">Created by suryanaagus</text><text x="0" y="68" fill="#000000" font-size="5px" font-weight="bold" font-family="'Helvetica Neue', Helvetica, Arial-Unicode, Arial, Sans-serif">from the Noun Project</text></svg>